<svg width="70" height="70" viewBox="0 0 70 70" fill="none" xmlns="http://www.w3.org/2000/svg">
<path d="M64.1348 33.1774C63.2792 33.1755 62.4515 32.8726 61.7969 32.3217L61.1371 31.7719C60.2473 31.0314 59.1264 30.6256 57.9688 30.625V28.4375C59.6379 28.4387 61.2541 29.0239 62.5369 30.0918L63.1658 30.6161C63.3833 30.8016 63.6488 30.9218 63.9316 30.9629C64.2144 31.004 64.5031 30.9644 64.7644 30.8485C65.0237 30.7333 65.2435 30.5444 65.3965 30.3054C65.5495 30.0664 65.629 29.7877 65.625 29.5039C65.6255 29.3094 65.5875 29.1167 65.5131 28.9371C65.4387 28.7574 65.3293 28.5942 65.1915 28.457L61.6368 24.9024C61.1177 24.3914 60.7598 23.7394 60.6073 23.0271C60.4549 22.3149 60.5146 21.5736 60.779 20.8949C61.0455 20.2108 61.514 19.6242 62.1222 19.2131C62.7305 18.802 63.4495 18.5859 64.1836 18.5937H66.7188C67.0088 18.5937 67.287 18.709 67.4922 18.9141C67.6973 19.1192 67.8125 19.3974 67.8125 19.6875C67.8125 19.9776 67.6973 20.2558 67.4922 20.4609C67.287 20.666 67.0088 20.7812 66.7188 20.7812H64.1836C63.8908 20.7813 63.6045 20.8681 63.3611 21.0308C63.1176 21.1935 62.9279 21.4247 62.8158 21.6952C62.7038 21.9657 62.6744 22.2634 62.7316 22.5506C62.7887 22.8378 62.9297 23.1016 63.1367 23.3086L66.7382 26.9102C67.1488 27.3207 67.4561 27.8228 67.6348 28.3752C67.8135 28.9276 67.8585 29.5145 67.7661 30.0877C67.6737 30.6609 67.4465 31.204 67.1032 31.6722C66.76 32.1405 66.3105 32.5206 65.7917 32.7812C65.2778 33.0406 64.7104 33.1763 64.1348 33.1774Z" fill="#4963EF"/>
<path d="M51.4062 39.375V37.1875H43.75V42.6562L50.3125 47.0312L48.125 53.5938H53.5938L55.7812 44.8438L51.4062 39.375Z" fill="#4963EF"/>
<path d="M19.6875 45.9375L15.3125 53.5938H20.7812L25.1562 45.9375V39.375H19.6875V45.9375Z" fill="#4963EF"/>
<path d="M6.5625 31.7188L6.16055 30.5128C5.95909 29.9085 5.57261 29.3829 5.05585 29.0104C4.53909 28.6379 3.91825 28.4375 3.28125 28.4375V32.8125C3.28125 33.6827 3.62695 34.5173 4.24231 35.1327C4.85766 35.748 5.69226 36.0938 6.5625 36.0938H8.75V31.7188H6.5625Z" fill="#D6D6D4"/>
<path d="M66.7188 43.75L64.5312 53.5938H59.0625L61.25 45.9375L54.9896 44.059C54.0632 43.7817 53.2097 43.3027 52.4904 42.6563H36.0938V45.9375L31.7188 53.5938H26.25L30.625 45.9375V42.6563H16.4062L13.125 45.9375H8.75V31.7188L21.9174 20.449C24.4981 18.0409 27.8438 16.6174 31.3684 16.4279C34.8931 16.2385 38.3721 17.2951 41.1961 19.4127L42.875 20.6719C44.8627 22.1632 47.2807 22.9692 49.7656 22.9688C49.8285 22.9688 49.8914 22.9688 49.9543 22.9715C52.9669 23.0207 55.8396 24.252 57.9526 26.3999C60.0657 28.5478 61.25 31.4401 61.25 34.4531V38.2813L66.7188 43.75Z" fill="#4963EF"/>
<path d="M21.1832 30.5128L20.7812 31.7188H17.5V36.0938H20.7812C21.6515 36.0938 22.4861 35.748 23.1014 35.1327C23.7168 34.5173 24.0625 33.6827 24.0625 32.8125V28.4375C23.4255 28.4375 22.8047 28.6379 22.2879 29.0104C21.7711 29.3829 21.3847 29.9085 21.1832 30.5128Z" fill="#D6D6D4"/>
<path d="M66.7188 43.75L64.5313 53.5938H59.0625L61.25 45.9375L54.9897 44.059C54.0632 43.7817 53.2097 43.3027 52.4904 42.6563H36.0938V45.9375L31.7188 53.5938H26.25L30.625 45.9375V42.6563H16.8397C35.3309 39.3121 42.7178 32.8453 49.9543 22.9715C52.967 23.0207 55.8396 24.252 57.9527 26.3999C60.0657 28.5478 61.25 31.4401 61.25 34.4531V38.2813L66.7188 43.75Z" fill="#5F76F1"/>
<path d="M52.5 43.759C52.2309 43.7594 51.9712 43.6601 51.771 43.4803C50.9686 42.7617 50.3266 41.8821 49.8869 40.8989C49.4471 39.9156 49.2195 38.8507 49.2188 37.7736V36.0938C49.2188 35.8037 49.334 35.5255 49.5391 35.3204C49.7442 35.1152 50.0224 35 50.3125 35C50.6026 35 50.8808 35.1152 51.0859 35.3204C51.291 35.5255 51.4063 35.8037 51.4063 36.0938V37.7736C51.4068 38.5429 51.5695 39.3035 51.8836 40.0058C52.1977 40.7081 52.6562 41.3363 53.2293 41.8496C53.3945 41.9973 53.511 42.1916 53.5634 42.407C53.6157 42.6223 53.6014 42.8485 53.5223 43.0555C53.4433 43.2625 53.3032 43.4407 53.1206 43.5663C52.938 43.6919 52.7216 43.7591 52.5 43.759Z" fill="#4963EF"/>
<path d="M36.0938 42.6562C35.8037 42.6562 35.5255 42.541 35.3204 42.3359C35.1152 42.1308 35 41.8526 35 41.5625V37.1875C35 36.8974 35.1152 36.6192 35.3204 36.4141C35.5255 36.209 35.8037 36.0938 36.0938 36.0938C36.3838 36.0938 36.662 36.209 36.8671 36.4141C37.0723 36.6192 37.1875 36.8974 37.1875 37.1875V41.5625C37.1875 41.8526 37.0723 42.1308 36.8671 42.3359C36.662 42.541 36.3838 42.6562 36.0938 42.6562Z" fill="#4963EF"/>
</svg>
