<svg width="512" height="512" viewBox="0 0 512 512" fill="none" xmlns="http://www.w3.org/2000/svg">
<g clip-path="url(#clip0)">
<path d="M478.886 283.83C477.223 279.843 473.341 277.24 469.033 277.24H352.187V10.6634C352.187 4.7774 347.41 0 341.524 0H170.914C165.028 0 160.251 4.7774 160.251 10.6634V277.241H42.9567C38.6491 277.241 34.7674 279.844 33.104 283.81C31.4615 287.798 32.3572 292.383 35.4072 295.433L248.136 508.866C250.14 510.87 252.85 512.001 255.686 512.001C258.522 512.001 261.231 510.87 263.235 508.887L476.583 295.454C479.633 292.403 480.55 287.819 478.886 283.83Z" fill="#D94A4A"/>
</g>
<defs>
<clipPath id="clip0">
<rect width="512" height="512" fill="white"/>
</clipPath>
</defs>
</svg>
