<svg width="156" height="70" viewBox="0 0 156 70" fill="none" xmlns="http://www.w3.org/2000/svg">
<path d="M64.1348 33.1774C63.2792 33.1755 62.4515 32.8726 61.7969 32.3217L61.1371 31.7719C60.2473 31.0314 59.1264 30.6256 57.9688 30.625V28.4375C59.6379 28.4387 61.2541 29.0239 62.5369 30.0918L63.1658 30.6161C63.3833 30.8016 63.6488 30.9218 63.9316 30.9629C64.2144 31.004 64.5031 30.9644 64.7644 30.8485C65.0237 30.7333 65.2435 30.5444 65.3965 30.3054C65.5495 30.0664 65.629 29.7877 65.625 29.5039C65.6255 29.3094 65.5875 29.1167 65.5131 28.9371C65.4387 28.7574 65.3293 28.5942 65.1915 28.457L61.6368 24.9024C61.1177 24.3914 60.7598 23.7394 60.6073 23.0271C60.4549 22.3149 60.5146 21.5736 60.779 20.8949C61.0455 20.2108 61.514 19.6242 62.1222 19.2131C62.7305 18.802 63.4495 18.5859 64.1836 18.5937H66.7188C67.0088 18.5937 67.287 18.709 67.4922 18.9141C67.6973 19.1192 67.8125 19.3974 67.8125 19.6875C67.8125 19.9776 67.6973 20.2558 67.4922 20.4609C67.287 20.666 67.0088 20.7812 66.7188 20.7812H64.1836C63.8908 20.7813 63.6045 20.8681 63.3611 21.0308C63.1176 21.1935 62.9279 21.4247 62.8158 21.6952C62.7038 21.9657 62.6744 22.2634 62.7316 22.5506C62.7887 22.8378 62.9297 23.1016 63.1367 23.3086L66.7382 26.9102C67.1488 27.3207 67.4561 27.8228 67.6348 28.3752C67.8135 28.9276 67.8585 29.5145 67.7661 30.0877C67.6737 30.6609 67.4465 31.204 67.1032 31.6722C66.76 32.1405 66.3105 32.5206 65.7917 32.7812C65.2778 33.0406 64.7104 33.1763 64.1348 33.1774Z" fill="#4963EF"/>
<path d="M51.4062 39.375V37.1875H43.75V42.6562L50.3125 47.0312L48.125 53.5938H53.5938L55.7812 44.8438L51.4062 39.375Z" fill="#4963EF"/>
<path d="M19.6875 45.9375L15.3125 53.5938H20.7812L25.1562 45.9375V39.375H19.6875V45.9375Z" fill="#4963EF"/>
<path d="M6.5625 31.7188L6.16055 30.5128C5.95909 29.9085 5.57261 29.3829 5.05585 29.0104C4.53909 28.6379 3.91825 28.4375 3.28125 28.4375V32.8125C3.28125 33.6827 3.62695 34.5173 4.24231 35.1327C4.85766 35.748 5.69226 36.0938 6.5625 36.0938H8.75V31.7188H6.5625Z" fill="#D6D6D4"/>
<path d="M66.7188 43.75L64.5312 53.5938H59.0625L61.25 45.9375L54.9896 44.059C54.0632 43.7817 53.2097 43.3027 52.4904 42.6563H36.0938V45.9375L31.7188 53.5938H26.25L30.625 45.9375V42.6563H16.4062L13.125 45.9375H8.75V31.7188L21.9174 20.449C24.4981 18.0409 27.8438 16.6174 31.3684 16.4279C34.8931 16.2385 38.3721 17.2951 41.1961 19.4127L42.875 20.6719C44.8627 22.1632 47.2807 22.9692 49.7656 22.9688C49.8285 22.9688 49.8914 22.9688 49.9543 22.9715C52.9669 23.0207 55.8396 24.252 57.9526 26.3999C60.0657 28.5478 61.25 31.4401 61.25 34.4531V38.2813L66.7188 43.75Z" fill="#4963EF"/>
<path d="M21.1832 30.5128L20.7812 31.7188H17.5V36.0938H20.7812C21.6515 36.0938 22.4861 35.748 23.1014 35.1327C23.7168 34.5173 24.0625 33.6827 24.0625 32.8125V28.4375C23.4255 28.4375 22.8047 28.6379 22.2879 29.0104C21.7711 29.3829 21.3847 29.9085 21.1832 30.5128Z" fill="#D6D6D4"/>
<path d="M66.7188 43.75L64.5313 53.5938H59.0625L61.25 45.9375L54.9897 44.059C54.0632 43.7817 53.2097 43.3027 52.4904 42.6563H36.0938V45.9375L31.7188 53.5938H26.25L30.625 45.9375V42.6563H16.8397C35.3309 39.3121 42.7178 32.8453 49.9543 22.9715C52.967 23.0207 55.8396 24.252 57.9527 26.3999C60.0657 28.5478 61.25 31.4401 61.25 34.4531V38.2813L66.7188 43.75Z" fill="#5F76F1"/>
<path d="M52.5 43.759C52.2309 43.7594 51.9712 43.6601 51.771 43.4803C50.9686 42.7617 50.3266 41.8821 49.8869 40.8989C49.4471 39.9156 49.2195 38.8507 49.2188 37.7736V36.0938C49.2188 35.8037 49.334 35.5255 49.5391 35.3204C49.7442 35.1152 50.0224 35 50.3125 35C50.6026 35 50.8808 35.1152 51.0859 35.3204C51.291 35.5255 51.4063 35.8037 51.4063 36.0938V37.7736C51.4068 38.5429 51.5695 39.3035 51.8836 40.0058C52.1977 40.7081 52.6562 41.3363 53.2293 41.8496C53.3945 41.9973 53.511 42.1916 53.5634 42.407C53.6157 42.6223 53.6014 42.8485 53.5223 43.0555C53.4433 43.2625 53.3032 43.4407 53.1206 43.5663C52.938 43.6919 52.7216 43.7591 52.5 43.759Z" fill="#4963EF"/>
<path d="M36.0938 42.6562C35.8037 42.6562 35.5255 42.541 35.3204 42.3359C35.1152 42.1308 35 41.8526 35 41.5625V37.1875C35 36.8974 35.1152 36.6192 35.3204 36.4141C35.5255 36.209 35.8037 36.0938 36.0938 36.0938C36.3838 36.0938 36.662 36.209 36.8671 36.4141C37.0723 36.6192 37.1875 36.8974 37.1875 37.1875V41.5625C37.1875 41.8526 37.0723 42.1308 36.8671 42.3359C36.662 42.541 36.3838 42.6562 36.0938 42.6562Z" fill="#4963EF"/>
<path d="M80.842 29.912C81.118 29.912 81.394 29.894 81.67 29.858C81.946 29.81 82.192 29.732 82.408 29.624C82.624 29.516 82.798 29.366 82.93 29.174C83.074 28.97 83.146 28.712 83.146 28.4C83.146 28.16 83.08 27.956 82.948 27.788C82.816 27.608 82.648 27.446 82.444 27.302C82.24 27.158 82.012 27.026 81.76 26.906C81.508 26.786 81.256 26.654 81.004 26.51C80.68 26.318 80.374 26.114 80.086 25.898C79.798 25.682 79.552 25.442 79.348 25.178C79.144 24.902 78.982 24.602 78.862 24.278C78.742 23.942 78.682 23.558 78.682 23.126C78.682 22.574 78.784 22.064 78.988 21.596C79.204 21.116 79.516 20.702 79.924 20.354C80.344 20.006 80.866 19.736 81.49 19.544C82.114 19.34 82.846 19.238 83.686 19.238C84.07 19.238 84.442 19.274 84.802 19.346C85.162 19.406 85.498 19.484 85.81 19.58C86.122 19.676 86.404 19.79 86.656 19.922C86.92 20.042 87.142 20.162 87.322 20.282L86.152 22.352C85.852 22.124 85.486 21.932 85.054 21.776C84.622 21.62 84.154 21.542 83.65 21.542C83.374 21.542 83.11 21.566 82.858 21.614C82.606 21.662 82.384 21.746 82.192 21.866C82 21.974 81.844 22.118 81.724 22.298C81.616 22.478 81.562 22.7 81.562 22.964C81.562 23.204 81.604 23.408 81.688 23.576C81.784 23.732 81.904 23.87 82.048 23.99C82.192 24.11 82.36 24.218 82.552 24.314C82.744 24.41 82.948 24.512 83.164 24.62C83.536 24.812 83.896 25.016 84.244 25.232C84.592 25.448 84.898 25.7 85.162 25.988C85.426 26.264 85.636 26.582 85.792 26.942C85.948 27.302 86.026 27.728 86.026 28.22C86.026 28.904 85.9 29.498 85.648 30.002C85.396 30.506 85.042 30.926 84.586 31.262C84.13 31.598 83.584 31.844 82.948 32C82.324 32.168 81.628 32.252 80.86 32.252C80.356 32.252 79.882 32.21 79.438 32.126C79.006 32.042 78.61 31.946 78.25 31.838C77.902 31.718 77.596 31.592 77.332 31.46C77.08 31.328 76.876 31.208 76.72 31.1L77.908 28.958C78.052 29.054 78.226 29.156 78.43 29.264C78.634 29.372 78.862 29.474 79.114 29.57C79.378 29.666 79.654 29.75 79.942 29.822C80.23 29.882 80.53 29.912 80.842 29.912ZM89.8887 20.174L92.6787 19.742L91.9947 22.532H94.9827L94.4427 24.728H91.4727L90.6807 28.04C90.6087 28.316 90.5607 28.574 90.5367 28.814C90.5247 29.054 90.5547 29.264 90.6267 29.444C90.7107 29.612 90.8487 29.744 91.0407 29.84C91.2327 29.936 91.4967 29.984 91.8327 29.984C92.1207 29.984 92.3967 29.96 92.6607 29.912C92.9367 29.852 93.2127 29.774 93.4887 29.678L93.6867 31.73C93.3267 31.862 92.9367 31.976 92.5167 32.072C92.0967 32.168 91.5987 32.216 91.0227 32.216C90.1947 32.216 89.5527 32.096 89.0967 31.856C88.6407 31.604 88.3167 31.268 88.1247 30.848C87.9327 30.416 87.8487 29.924 87.8727 29.372C87.8967 28.82 87.9807 28.238 88.1247 27.626L89.8887 20.174ZM98.8233 32.252C98.1873 32.252 97.6353 32.156 97.1673 31.964C96.6993 31.772 96.3093 31.502 95.9973 31.154C95.6973 30.806 95.4693 30.398 95.3133 29.93C95.1573 29.45 95.0793 28.922 95.0793 28.346C95.0793 27.626 95.1933 26.906 95.4213 26.186C95.6613 25.466 96.0093 24.818 96.4653 24.242C96.9213 23.666 97.4793 23.198 98.1393 22.838C98.7993 22.466 99.5553 22.28 100.407 22.28C101.031 22.28 101.577 22.376 102.045 22.568C102.525 22.76 102.915 23.03 103.215 23.378C103.527 23.726 103.761 24.14 103.917 24.62C104.073 25.088 104.151 25.61 104.151 26.186C104.151 26.906 104.037 27.626 103.809 28.346C103.581 29.066 103.245 29.714 102.801 30.29C102.357 30.866 101.799 31.34 101.127 31.712C100.467 32.072 99.6993 32.252 98.8233 32.252ZM100.155 24.548C99.7593 24.548 99.4113 24.662 99.1113 24.89C98.8113 25.118 98.5593 25.406 98.3553 25.754C98.1513 26.102 97.9953 26.486 97.8873 26.906C97.7913 27.314 97.7433 27.704 97.7433 28.076C97.7433 28.688 97.8393 29.162 98.0313 29.498C98.2233 29.822 98.5713 29.984 99.0753 29.984C99.4713 29.984 99.8193 29.87 100.119 29.642C100.419 29.414 100.671 29.126 100.875 28.778C101.079 28.43 101.229 28.052 101.325 27.644C101.433 27.224 101.487 26.828 101.487 26.456C101.487 25.844 101.391 25.376 101.199 25.052C101.007 24.716 100.659 24.548 100.155 24.548ZM105.415 28.22C105.415 27.404 105.547 26.636 105.811 25.916C106.075 25.196 106.453 24.566 106.945 24.026C107.437 23.486 108.031 23.06 108.727 22.748C109.435 22.436 110.221 22.28 111.085 22.28C111.625 22.28 112.105 22.334 112.525 22.442C112.957 22.538 113.347 22.67 113.695 22.838L112.777 24.926C112.537 24.83 112.285 24.746 112.021 24.674C111.769 24.59 111.457 24.548 111.085 24.548C110.185 24.548 109.477 24.854 108.961 25.466C108.445 26.066 108.187 26.888 108.187 27.932C108.187 28.544 108.319 29.042 108.583 29.426C108.847 29.798 109.333 29.984 110.041 29.984C110.389 29.984 110.725 29.948 111.049 29.876C111.373 29.804 111.661 29.714 111.913 29.606L112.111 31.748C111.775 31.88 111.403 31.994 110.995 32.09C110.599 32.198 110.113 32.252 109.537 32.252C108.793 32.252 108.163 32.144 107.647 31.928C107.131 31.712 106.705 31.424 106.369 31.064C106.033 30.692 105.787 30.26 105.631 29.768C105.487 29.276 105.415 28.76 105.415 28.22ZM117.646 25.952C118.366 25.376 119.044 24.788 119.68 24.188C120.316 23.588 120.862 23.036 121.318 22.532H124.342C123.67 23.276 122.968 24.008 122.236 24.728C121.516 25.436 120.688 26.192 119.752 26.996C120.004 27.308 120.256 27.668 120.508 28.076C120.772 28.484 121.018 28.91 121.246 29.354C121.486 29.798 121.702 30.248 121.894 30.704C122.098 31.16 122.266 31.592 122.398 32H119.41C119.302 31.688 119.164 31.346 118.996 30.974C118.84 30.602 118.66 30.236 118.456 29.876C118.264 29.504 118.06 29.144 117.844 28.796C117.628 28.448 117.412 28.136 117.196 27.86L116.188 32H113.524L116.764 18.464L119.554 18.032L117.646 25.952ZM85 42.65C84.448 42.65 83.932 42.794 83.452 43.082C82.984 43.37 82.57 43.754 82.21 44.234C81.862 44.714 81.586 45.266 81.382 45.89C81.19 46.514 81.094 47.156 81.094 47.816C81.094 48.716 81.28 49.448 81.652 50.012C82.036 50.564 82.654 50.84 83.506 50.84C84.058 50.84 84.568 50.696 85.036 50.408C85.516 50.12 85.93 49.736 86.278 49.256C86.638 48.776 86.914 48.23 87.106 47.618C87.31 46.994 87.412 46.346 87.412 45.674C87.412 44.774 87.22 44.048 86.836 43.496C86.464 42.932 85.852 42.65 85 42.65ZM83.218 53.252C82.486 53.252 81.814 53.132 81.202 52.892C80.59 52.652 80.062 52.31 79.618 51.866C79.174 51.41 78.826 50.858 78.574 50.21C78.334 49.562 78.214 48.83 78.214 48.014C78.214 47.078 78.376 46.148 78.7 45.224C79.024 44.3 79.486 43.472 80.086 42.74C80.698 41.996 81.442 41.396 82.318 40.94C83.194 40.472 84.184 40.238 85.288 40.238C86.02 40.238 86.692 40.358 87.304 40.598C87.916 40.838 88.444 41.186 88.888 41.642C89.332 42.086 89.674 42.632 89.914 43.28C90.166 43.928 90.292 44.66 90.292 45.476C90.292 46.412 90.13 47.348 89.806 48.284C89.494 49.208 89.032 50.042 88.42 50.786C87.82 51.518 87.082 52.112 86.206 52.568C85.33 53.024 84.334 53.252 83.218 53.252ZM93.241 53C92.929 51.8 92.647 50.402 92.395 48.806C92.143 47.198 91.969 45.44 91.873 43.532H94.645C94.657 44 94.675 44.516 94.699 45.08C94.723 45.632 94.753 46.19 94.789 46.754C94.825 47.318 94.867 47.87 94.915 48.41C94.963 48.938 95.017 49.418 95.077 49.85C95.341 49.49 95.635 49.046 95.959 48.518C96.295 47.99 96.619 47.438 96.931 46.862C97.243 46.286 97.531 45.71 97.795 45.134C98.059 44.546 98.263 44.012 98.407 43.532H101.251C100.939 44.384 100.549 45.26 100.081 46.16C99.625 47.06 99.133 47.93 98.605 48.77C98.077 49.61 97.537 50.396 96.985 51.128C96.445 51.86 95.941 52.484 95.473 53H93.241ZM101.249 49.292C101.249 48.524 101.381 47.78 101.645 47.06C101.921 46.34 102.305 45.704 102.797 45.152C103.289 44.588 103.883 44.138 104.579 43.802C105.287 43.454 106.067 43.28 106.919 43.28C107.339 43.28 107.729 43.34 108.089 43.46C108.449 43.58 108.761 43.754 109.025 43.982C109.301 44.21 109.511 44.492 109.655 44.828C109.811 45.152 109.889 45.524 109.889 45.944C109.889 46.616 109.739 47.186 109.439 47.654C109.139 48.122 108.719 48.506 108.179 48.806C107.651 49.094 107.021 49.304 106.289 49.436C105.557 49.568 104.759 49.634 103.895 49.634C103.979 50.138 104.159 50.498 104.435 50.714C104.723 50.918 105.173 51.02 105.785 51.02C106.169 51.02 106.559 50.99 106.955 50.93C107.351 50.858 107.723 50.756 108.071 50.624L108.269 52.73C107.933 52.862 107.501 52.982 106.973 53.09C106.457 53.198 105.893 53.252 105.281 53.252C104.537 53.252 103.907 53.15 103.391 52.946C102.887 52.73 102.473 52.442 102.149 52.082C101.837 51.722 101.609 51.302 101.465 50.822C101.321 50.342 101.249 49.832 101.249 49.292ZM106.487 45.404C105.875 45.404 105.335 45.626 104.867 46.07C104.411 46.502 104.111 47.078 103.967 47.798C104.711 47.774 105.311 47.714 105.767 47.618C106.223 47.51 106.577 47.384 106.829 47.24C107.081 47.096 107.249 46.94 107.333 46.772C107.417 46.604 107.459 46.436 107.459 46.268C107.459 45.692 107.135 45.404 106.487 45.404ZM117.49 45.836C117.25 45.776 117.01 45.722 116.77 45.674C116.542 45.614 116.2 45.584 115.744 45.584C115.576 45.584 115.39 45.602 115.186 45.638C114.982 45.662 114.814 45.692 114.682 45.728L112.936 53H110.254L112.414 44.036C112.93 43.868 113.506 43.712 114.142 43.568C114.79 43.412 115.516 43.334 116.32 43.334C116.62 43.334 116.95 43.364 117.31 43.424C117.682 43.472 118.006 43.556 118.282 43.676L117.49 45.836ZM128.725 53.18C127.873 53.18 127.201 53.072 126.709 52.856C126.229 52.628 125.881 52.322 125.665 51.938C125.461 51.554 125.359 51.116 125.359 50.624C125.371 50.12 125.443 49.586 125.575 49.022L127.861 39.464L130.651 39.032L128.149 49.4C128.101 49.616 128.071 49.814 128.059 49.994C128.059 50.174 128.095 50.336 128.167 50.48C128.239 50.612 128.359 50.72 128.527 50.804C128.707 50.888 128.953 50.942 129.265 50.966L128.725 53.18ZM124.981 39.032C125.521 39.032 125.959 39.074 126.295 39.158C126.631 39.242 126.901 39.332 127.105 39.428L126.151 41.516C125.935 41.456 125.725 41.408 125.521 41.372C125.329 41.324 125.113 41.3 124.873 41.3C124.213 41.3 123.721 41.468 123.397 41.804C123.085 42.14 122.869 42.56 122.749 43.064L122.641 43.532H125.809L125.269 45.728H122.119L121.021 50.318C120.613 52.034 120.169 53.366 119.689 54.314C119.209 55.274 118.681 55.97 118.105 56.402L115.711 56.06C116.023 55.772 116.311 55.418 116.575 54.998C116.839 54.578 117.073 54.134 117.277 53.666C117.493 53.198 117.673 52.724 117.817 52.244C117.973 51.752 118.099 51.296 118.195 50.876L120.067 43.028C120.367 41.756 120.907 40.772 121.687 40.076C122.467 39.38 123.565 39.032 124.981 39.032ZM134.753 53.252C134.117 53.252 133.565 53.156 133.097 52.964C132.629 52.772 132.239 52.502 131.927 52.154C131.627 51.806 131.399 51.398 131.243 50.93C131.087 50.45 131.009 49.922 131.009 49.346C131.009 48.626 131.123 47.906 131.351 47.186C131.591 46.466 131.939 45.818 132.395 45.242C132.851 44.666 133.409 44.198 134.069 43.838C134.729 43.466 135.485 43.28 136.337 43.28C136.961 43.28 137.507 43.376 137.975 43.568C138.455 43.76 138.845 44.03 139.145 44.378C139.457 44.726 139.691 45.14 139.847 45.62C140.003 46.088 140.081 46.61 140.081 47.186C140.081 47.906 139.967 48.626 139.739 49.346C139.511 50.066 139.175 50.714 138.731 51.29C138.287 51.866 137.729 52.34 137.057 52.712C136.397 53.072 135.629 53.252 134.753 53.252ZM136.085 45.548C135.689 45.548 135.341 45.662 135.041 45.89C134.741 46.118 134.489 46.406 134.285 46.754C134.081 47.102 133.925 47.486 133.817 47.906C133.721 48.314 133.673 48.704 133.673 49.076C133.673 49.688 133.769 50.162 133.961 50.498C134.153 50.822 134.501 50.984 135.005 50.984C135.401 50.984 135.749 50.87 136.049 50.642C136.349 50.414 136.601 50.126 136.805 49.778C137.009 49.43 137.159 49.052 137.255 48.644C137.363 48.224 137.417 47.828 137.417 47.456C137.417 46.844 137.321 46.376 137.129 46.052C136.937 45.716 136.589 45.548 136.085 45.548ZM148.045 47.456C147.817 47.948 147.559 48.452 147.271 48.968C146.995 49.472 146.707 49.97 146.407 50.462C146.119 50.942 145.837 51.404 145.561 51.848C145.285 52.28 145.039 52.664 144.823 53H142.735C142.639 52.496 142.537 51.896 142.429 51.2C142.333 50.504 142.237 49.748 142.141 48.932C142.045 48.104 141.955 47.234 141.871 46.322C141.799 45.398 141.745 44.468 141.709 43.532H144.337C144.337 43.964 144.337 44.432 144.337 44.936C144.349 45.44 144.361 45.962 144.373 46.502C144.397 47.042 144.427 47.594 144.463 48.158C144.499 48.722 144.547 49.28 144.607 49.832C144.907 49.328 145.201 48.806 145.489 48.266C145.789 47.714 146.071 47.168 146.335 46.628C146.611 46.076 146.863 45.536 147.091 45.008C147.331 44.48 147.541 43.988 147.721 43.532H149.953C149.953 44.396 149.965 45.362 149.989 46.43C150.025 47.498 150.103 48.632 150.223 49.832C150.547 49.292 150.847 48.74 151.123 48.176C151.399 47.6 151.651 47.036 151.879 46.484C152.119 45.932 152.329 45.404 152.509 44.9C152.701 44.396 152.869 43.94 153.013 43.532H155.857C155.617 44.132 155.329 44.81 154.993 45.566C154.669 46.31 154.291 47.096 153.859 47.924C153.427 48.752 152.941 49.598 152.401 50.462C151.861 51.326 151.261 52.172 150.601 53H148.513C148.369 52.016 148.261 51.074 148.189 50.174C148.117 49.274 148.069 48.368 148.045 47.456Z" fill="#505050"/>
</svg>
