<svg width="512" height="512" viewBox="0 0 512 512" fill="none" xmlns="http://www.w3.org/2000/svg">
<g clip-path="url(#clip0)">
<path d="M33.1139 228.17C34.7774 232.157 38.6591 234.76 42.9666 234.76L159.813 234.76L159.813 501.337C159.813 507.223 164.59 512 170.476 512L341.086 512C346.972 512 351.75 507.223 351.75 501.337L351.75 234.759L469.043 234.759C473.351 234.759 477.233 232.156 478.896 228.19C480.538 224.202 479.643 219.617 476.593 216.567L263.864 3.13392C261.86 1.12959 259.15 -0.00102194 256.314 -0.00102169C253.478 -0.00102145 250.769 1.12959 248.765 3.11293L35.4171 216.546C32.3672 219.597 31.4505 224.181 33.1139 228.17Z" fill="#59CD76"/>
</g>
<defs>
<clipPath id="clip0">
<rect width="512" height="512" fill="white" transform="translate(512 512) rotate(180)"/>
</clipPath>
</defs>
</svg>
